<svg id="Group_28800" data-name="Group 28800" xmlns="http://www.w3.org/2000/svg" xmlns:xlink="http://www.w3.org/1999/xlink" width="150.82" height="48.35" viewBox="0 0 150.82 48.35">
  <defs>
    <clipPath id="clip-path">
      <rect id="Rectangle_7098" data-name="Rectangle 7098" width="150.82" height="48.114" fill="none"/>
    </clipPath>
  </defs>
  <rect id="Rectangle_7095" data-name="Rectangle 7095" width="48.298" height="48.35" fill="#f7a70d"/>
  <g id="Group_28799" data-name="Group 28799" transform="translate(0 0.235)">
    <g id="Group_28798" data-name="Group 28798" clip-path="url(#clip-path)">
      <path id="Path_24644" data-name="Path 24644" d="M47.894,27.955c-3.26-.838-4.062-1.24-4.062-2.479v-.053c0-.892.829-1.65,2.414-1.65a8.818,8.818,0,0,1,4.864,1.863l2.156-3.13a10.924,10.924,0,0,0-7-2.389c-3.848,0-6.592,2.256-6.592,5.68v.054c0,3.745,2.45,4.8,6.236,5.761,3.153.811,3.795,1.346,3.795,2.4v.053c0,1.106-1.025,1.784-2.673,1.784a8.331,8.331,0,0,1-5.621-2.292l-.089-.071s-.258-.232-.436-.41a1.549,1.549,0,0,1-.2-.223,11.332,11.332,0,0,1-1.7,3.648c.152.142.312.267.472.4a12.036,12.036,0,0,0,7.5,2.595c4.062,0,6.913-2.1,6.913-5.841V33.6c-.009-3.282-2.156-4.655-5.977-5.645" transform="translate(-12.806 -6.843)" fill="#fff"/>
      <path id="Path_24645" data-name="Path 24645" d="M34.228,42.5,24.082,34.229a5.916,5.916,0,1,1,1.14-1.373l2.957,2.452a9.641,9.641,0,0,0,1.71-5.5,9.747,9.747,0,1,0-5.273,8.667l9.317,4.414Z" transform="translate(-3.416 -6.821)" fill="#fff"/>
      <rect id="Rectangle_7096" data-name="Rectangle 7096" width="3.563" height="16.123" transform="translate(56.359 15.879)"/>
      <rect id="Rectangle_7097" data-name="Rectangle 7097" width="7.126" height="3.335" transform="translate(62.096 23.182)"/>
      <path id="Path_24646" data-name="Path 24646" d="M105.2,31.96v-.044a8.269,8.269,0,0,1,8.445-8.338,8.848,8.848,0,0,1,6.324,2.211l-2.236,2.675a5.912,5.912,0,0,0-4.2-1.632,4.841,4.841,0,0,0-4.623,5.021V31.9a4.821,4.821,0,0,0,4.873,5.11,5.679,5.679,0,0,0,3.34-.963V33.752h-3.563V30.694h6.993v7a10.445,10.445,0,0,1-6.886,2.56A8.066,8.066,0,0,1,105.2,31.96" transform="translate(-34.557 -7.976)"/>
      <path id="Path_24647" data-name="Path 24647" d="M136.692,23.823h3.269l6.894,16.238h-3.7l-1.469-3.62h-6.815l-1.47,3.62H129.8Zm3.724,9.488-2.138-5.226-2.111,5.226Z" transform="translate(-42.635 -8.06)"/>
      <path id="Path_24648" data-name="Path 24648" d="M156.129,33.207V24h3.563v9.123c0,2.622,1.309,3.977,3.474,3.977s3.474-1.311,3.474-3.861V24H170.2v9.1c0,4.887-2.735,7.277-7.055,7.277s-7.019-2.417-7.019-7.16" transform="translate(-51.285 -8.117)"/>
      <path id="Path_24649" data-name="Path 24649" d="M180.1,31.961v-.044a8.268,8.268,0,0,1,8.436-8.338,8.82,8.82,0,0,1,6.324,2.211l-2.227,2.675a5.91,5.91,0,0,0-4.2-1.632,4.83,4.83,0,0,0-4.623,5.02V31.9a4.819,4.819,0,0,0,4.873,5.11,5.631,5.631,0,0,0,3.331-.963V33.753h-3.563V30.694h7v7a10.417,10.417,0,0,1-6.877,2.559,8.064,8.064,0,0,1-8.471-8.293" transform="translate(-59.158 -7.976)"/>
      <path id="Path_24650" data-name="Path 24650" d="M206.748,24h12.141v3.157h-8.622v3.272h7.589v3.148h-7.589v3.388h8.739v3.157H206.748Z" transform="translate(-67.912 -8.117)"/>
    </g>
  </g>
</svg>
