<svg xmlns="http://www.w3.org/2000/svg" width="110.701" height="87.345" viewBox="0 0 110.701 87.345">
  <g id="Group_28797" data-name="Group 28797" transform="translate(-9.008 -2224.132)">
    <text id="All_India_Ranking_2023" data-name="All India Ranking 2023" transform="translate(65.001 2308.477)" stroke="rgba(0,0,0,0)" stroke-width="1" font-size="8" font-family="TASAOrbiter-Bold, TASA Orbiter" font-weight="700"><tspan x="-40" y="0">All India Ranking 2023</tspan></text>
    <g id="Group_27872" data-name="Group 27872" transform="translate(9.008 2224.132)">
      <path id="Path_702" data-name="Path 702" d="M44.638,66.7V34.179H56.787v6.212c1.138-3.194,5.949-5.266,9.5-5.687V32.816c0-3.627.909-6.3,2.752-7.963a13.1,13.1,0,0,1,9.1-3.231l12.512.546-3.114,7.884c-.171,0-3.494-.442-3.79-.467h-.671a5.361,5.361,0,0,0-3.41.784,3.419,3.419,0,0,0-.959,2.764V33.6c0,.217.058,1.138.058,1.322h6.1L81.2,43.01H78.926V67.4H66.289V43.281h-.7a8.589,8.589,0,0,0-5.87,2.631c-1.238,1.138-1.864,3.877-1.864,7.5V66.7Z" transform="translate(20.047 -9.222)" fill="#121856"/>
      <path id="Path_703" data-name="Path 703" d="M29.177,58.092V25.26h12.07v4.824a15.022,15.022,0,0,1,5.224-4.265A13.806,13.806,0,0,1,52.942,24.4a14.124,14.124,0,0,1,5.474.976,10.429,10.429,0,0,1,6.166,7.292,37.9,37.9,0,0,1,.625,8.351V58.08H51.941V41.086c0-2.468-.317-4.2-1.013-5.132a3.915,3.915,0,0,0-3.515-1.422,4.445,4.445,0,0,0-3.673,1.605,8.4,8.4,0,0,0-1.263,5.016v16.94Z" transform="translate(-28.952 -0.415)" fill="#121856"/>
      <path id="Path_704" data-name="Path 704" d="M39.028,62.32V24.393H56.889V62.32h-.271a47.156,47.156,0,0,0-8.672-11.378,36.721,36.721,0,0,0-8.68,11.378Z" transform="translate(2.268 -0.412)" fill="#121856" fill-rule="evenodd"/>
      <path id="Path_705" data-name="Path 705" d="M29.139,36.7c15.451-5.041,31.924-4.324,49.284,1.363,16.527-5.278,32.991-6.542,49.2-1.864v5.6c-17.507-5.074-33.767-3.865-49.351.742C62.63,37.715,46.42,36.394,29.139,41.8Z" transform="translate(-29.072 27.846)" fill="#b42c3e" fill-rule="evenodd"/>
      <path id="Path_706" data-name="Path 706" d="M78.337,40.511c3.31-.934,6.679-1.73,10.069-2.368a90.5,90.5,0,0,1,39.816,1.538v-1.4c-16.789-4.436-33.32-4.732-49.7.321-16.406-4.144-32.116-5.416-49.4-.479v1.284a81.457,81.457,0,0,1,34.946-2.08,104.915,104.915,0,0,1,14.221,3.185" transform="translate(-29.123 32.834)" fill="#b42c3e" fill-rule="evenodd"/>
      <path id="Path_707" data-name="Path 707" d="M49.3,18.641a22.362,22.362,0,0,0,.192,2.447,14.066,14.066,0,0,1,1.584-2.276c-.1.817-.183,1.639-.229,2.435a14.482,14.482,0,0,1,1.947-2c-.242.784-.454,1.58-.625,2.364a15.109,15.109,0,0,1,2.272-1.672c-.363.75-.7,1.493-1.009,2.276a14.455,14.455,0,0,1,2.522-1.368c-.488.684-.955,1.355-1.376,2.039a15.825,15.825,0,0,1,2.672-.855c-.592.592-1.138,1.138-1.693,1.789a15.7,15.7,0,0,1,2.785-.413c-.692.492-1.351.98-1.976,1.493a15.02,15.02,0,0,1,2.806,0c-.75.363-1.488.75-2.193,1.138a14.645,14.645,0,0,1,2.777.5c-.809.238-1.605.5-2.368.771a16.192,16.192,0,0,1,2.652.946c-.842.1-1.664.225-2.46.388a14.485,14.485,0,0,1,2.447,1.363H57.546a14.652,14.652,0,0,1,2.185,1.739c-.817-.167-1.639-.317-2.443-.429a15.94,15.94,0,0,1,1.864,2.068c-.784-.3-1.572-.567-2.343-.8a14.757,14.757,0,0,1,1.422,2.4,17.461,17.461,0,0,0-2.172-1.134A14.523,14.523,0,0,1,57.2,36.389q-.957-.807-1.947-1.526a15.017,15.017,0,0,1,.638,2.7c-.546-.625-1.138-1.242-1.672-1.809a13.945,13.945,0,0,1,.179,2.764q-.644-1.076-1.343-2.072a13.019,13.019,0,0,1-.284,2.756c-.3-.775-.625-1.526-.976-2.276A14.116,14.116,0,0,1,51.05,39.6c-.171-.784-.35-1.547-.567-2.276a14.385,14.385,0,0,1-1.138,2.435,22.447,22.447,0,0,0-.192-2.443,14.038,14.038,0,0,1-1.572,2.272c.1-.817.171-1.634.217-2.431a13.938,13.938,0,0,1-1.935,2c.238-.784.442-1.58.625-2.368a14.863,14.863,0,0,1-2.276,1.672,24.02,24.02,0,0,0,1.013-2.272,14.343,14.343,0,0,1-2.489,1.284c.488-.671.942-1.355,1.376-2.035a15.946,15.946,0,0,1-2.685.851c.6-.592,1.138-1.138,1.705-1.784a16.086,16.086,0,0,1-2.785.409c.68-.488,1.343-.98,1.976-1.488a15.91,15.91,0,0,1-2.818,0c.759-.367,1.488-.755,2.193-1.138a15.014,15.014,0,0,1-2.81-.546q1.213-.363,2.356-.775a16.432,16.432,0,0,1-2.639-.942c.83-.1,1.651-.229,2.456-.388a14.582,14.582,0,0,1-2.456-1.368H41.1a14.254,14.254,0,0,1-2.21-1.726c.83.179,1.651.317,2.46.429A13.955,13.955,0,0,1,39.481,24.9c.775.3,1.559.567,2.343.817a14.741,14.741,0,0,1-1.5-2.356q1.138.65,2.185,1.138a13.97,13.97,0,0,1-1.046-2.514c.638.534,1.284,1.046,1.947,1.526a13.93,13.93,0,0,1-.638-2.664c.534.625,1.138,1.242,1.659,1.809a14.949,14.949,0,0,1-.171-2.764c.421.717.867,1.413,1.33,2.072a14.593,14.593,0,0,1,.3-2.756c.3.775.625,1.526.967,2.276a14.455,14.455,0,0,1,.75-2.672c.163.784.354,1.559.559,2.276A15.227,15.227,0,0,1,49.3,18.654" transform="translate(0.927 -18.641)" fill="#b32a3d" fill-rule="evenodd"/>
    </g>
  </g>
</svg>
