<svg xmlns="http://www.w3.org/2000/svg" width="11.505" height="11.504" viewBox="0 0 11.505 11.504">
  <path id="Path_678" data-name="Path 678" d="M417.986,83.416a1.919,1.919,0,1,0,1.919,1.919A1.924,1.924,0,0,0,417.986,83.416Zm5.754,1.919c0-.8.007-1.582-.038-2.375a3.182,3.182,0,0,0-3.339-3.339c-.8-.044-1.582-.038-2.375-.038s-1.582-.007-2.375.038a3.182,3.182,0,0,0-3.339,3.339c-.045.8-.038,1.582-.038,2.375s-.007,1.582.038,2.375a3.182,3.182,0,0,0,3.339,3.339c.8.045,1.582.038,2.375.038s1.582.007,2.375-.038A3.183,3.183,0,0,0,423.7,87.71C423.749,86.917,423.74,86.131,423.74,85.335Zm-5.754,2.952a2.952,2.952,0,1,1,2.953-2.952A2.949,2.949,0,0,1,417.986,88.287Zm3.074-5.336a.69.69,0,1,1,.69-.69.689.689,0,0,1-.69.69Z" transform="translate(-412.236 -79.583)" fill="#a065a0"/>
</svg>
