<svg id="Group_1336" data-name="Group 1336" xmlns="http://www.w3.org/2000/svg" width="11.702" height="8.193" viewBox="0 0 11.702 8.193">
  <path id="path7429" d="M-1238.228,146.064a1.466,1.466,0,0,0-1.031-1.031,34.235,34.235,0,0,0-4.578-.251,35.6,35.6,0,0,0-4.579.241,1.5,1.5,0,0,0-1.031,1.041,15.45,15.45,0,0,0-.241,2.815,15.392,15.392,0,0,0,.241,2.815,1.466,1.466,0,0,0,1.031,1.031,34.317,34.317,0,0,0,4.579.251,35.6,35.6,0,0,0,4.578-.241,1.466,1.466,0,0,0,1.031-1.031,15.449,15.449,0,0,0,.241-2.815A14.659,14.659,0,0,0-1238.228,146.064Z" transform="translate(1249.689 -144.782)" fill="#fff"/>
  <path id="polygon7431" d="M-1131.941,203.655v3.509l3.046-1.754Z" transform="translate(1136.626 -201.313)" fill="red"/>
</svg>
